<?xml version="1.0" encoding="UTF-8"?>
<svg id="Ebene_2" data-name="Ebene 2" xmlns="http://www.w3.org/2000/svg" viewBox="0 0 79.97 81.62">
  <defs>
    <style>
      .cls-1 {
        fill: #f6f6f6;
        stroke: #f6f6f6;
        stroke-miterlimit: 10;
      }
    </style>
  </defs>
  <g id="Ebene_1-2" data-name="Ebene 1">
    <path class="cls-1" d="M76.51.5H3.45C1.82.5.5,1.82.5,3.45v74.71c0,1.63,1.32,2.95,2.95,2.95h73.06c1.63,0,2.95-1.32,2.95-2.95V3.45c0-1.63-1.32-2.95-2.95-2.95ZM76.7,44.1v6.03c0,.12-.1.23-.23.23h-6.03c-.12,0-.23-.1-.23-.23v-6.03c0-.12.1-.23.23-.23h6.03c.12,0,.23.1.23.23ZM76.71,52.75v6.03c0,.12-.1.23-.23.23h-6.03c-.12,0-.23-.1-.23-.23v-6.03c0-.12.1-.23.23-.23h6.03c.12,0,.23.1.23.23ZM66.98,14.71c0-.12.1-.23.23-.23h6.03c.12,0,.23.1.23.23v6.03c0,.12-.1.23-.23.23h-6.03c-.12,0-.23-.1-.23-.23v-6.03ZM61.94,44.1c0-.12.1-.23.23-.23h6.03c.12,0,.23.1.23.23v6.03c0,.12-.1.23-.23.23h-6.03c-.12,0-.23-.1-.23-.23v-6.03ZM68.43,52.75v6.03c0,.12-.1.23-.23.23h-6.03c-.12,0-.23-.1-.23-.23v-6.03c0-.12.1-.23.23-.23h6.03c.12,0,.23.1.23.23ZM60.03,44.1v6.03c0,.12-.1.23-.23.23h-6.03c-.12,0-.23-.1-.23-.23v-6.03c0-.12.1-.23.23-.23h6.03c.12,0,.23.1.23.23ZM60.04,52.75v6.03c0,.12-.1.23-.23.23h-6.03c-.12,0-.23-.1-.23-.23v-6.03c0-.12.1-.23.23-.23h6.03c.12,0,.23.1.23.23ZM45.14,10.53c0-.12.1-.23.23-.23h6.03c.12,0,.23.1.23.23v6.03c0,.12-.1.23-.23.23h-6.03c-.12,0-.23-.1-.23-.23v-6.03ZM51.63,19.17v6.03c0,.12-.1.23-.23.23h-6.03c-.12,0-.23-.1-.23-.23v-6.03c0-.12.1-.23.23-.23h6.03c.12,0,.23.1.23.23ZM45.14,44.1c0-.12.1-.23.23-.23h6.03c.12,0,.23.1.23.23v6.03c0,.12-.1.23-.23.23h-6.03c-.12,0-.23-.1-.23-.23v-6.03ZM51.63,52.75v6.03c0,.12-.1.23-.23.23h-6.03c-.12,0-.23-.1-.23-.23v-6.03c0-.12.1-.23.23-.23h6.03c.12,0,.23.1.23.23ZM36.76,44.1c0-.12.1-.23.23-.23h6.03c.12,0,.23.1.23.23v6.03c0,.12-.1.23-.23.23h-6.03c-.12,0-.23-.1-.23-.23v-6.03ZM43.24,52.75v6.03c0,.12-.1.23-.23.23h-6.03c-.12,0-.23-.1-.23-.23v-6.03c0-.12.1-.23.23-.23h6.03c.12,0,.23.1.23.23ZM11.66,44.1c0-.12.1-.23.23-.23h6.03c.12,0,.23.1.23.23v6.03c0,.12-.1.23-.23.23h-6.03c-.12,0-.23-.1-.23-.23v-6.03ZM18.15,52.75v6.03c0,.12-.1.23-.23.23h-6.03c-.12,0-.23-.1-.23-.23v-6.03c0-.12.1-.23.23-.23h6.03c.12,0,.23.1.23.23ZM3.27,44.1c0-.12.1-.23.23-.23h6.03c.12,0,.23.1.23.23v6.03c0,.12-.1.23-.23.23H3.5c-.12,0-.23-.1-.23-.23v-6.03ZM9.76,52.75v6.03c0,.12-.1.23-.23.23H3.51c-.12,0-.23-.1-.23-.23v-6.03c0-.12.1-.23.23-.23h6.03c.12,0,.23.1.23.23ZM3.27,61.39c0-.12.1-.23.23-.23h6.03c.12,0,.23.1.23.23v6.03c0,.12-.1.23-.23.23H3.5c-.12,0-.23-.1-.23-.23v-6.03ZM9.77,77.87c0,.12-.1.23-.23.23H3.52c-.12,0-.23-.1-.23-.23v-6.03c0-.12.1-.23.23-.23h6.03c.12,0,.23.1.23.23v6.03ZM11.14,36.79c0,.12-.1.23-.23.23h-6.03c-.12,0-.23-.1-.23-.23v-6.03c0-.12.1-.23.23-.23h6.03c.12,0,.23.1.23.23v6.03ZM11.14,28.25c0,.12-.1.23-.23.23h-6.03c-.12,0-.23-.1-.23-.23v-6.03c0-.12.1-.23.23-.23h6.03c.12,0,.23.1.23.23v6.03ZM11.14,19.7c0,.12-.1.23-.23.23h-6.03c-.12,0-.23-.1-.23-.23v-6.03c0-.12.1-.23.23-.23h6.03c.12,0,.23.1.23.23v6.03ZM11.14,11.16c0,.12-.1.23-.23.23h-6.03c-.12,0-.23-.1-.23-.23v-6.03c0-.12.1-.23.23-.23h6.03c.12,0,.23.1.23.23v6.03ZM11.66,61.39c0-.12.1-.23.23-.23h6.03c.12,0,.23.1.23.23v6.03c0,.12-.1.23-.23.23h-6.03c-.12,0-.23-.1-.23-.23v-6.03ZM18.16,77.87c0,.12-.1.23-.23.23h-6.03c-.12,0-.23-.1-.23-.23v-6.03c0-.12.1-.23.23-.23h6.03c.12,0,.23.1.23.23v6.03ZM26.55,50.13c0,.12-.1.23-.23.23h-6.03c-.12,0-.23-.1-.23-.23v-6.03c0-.12.1-.23.23-.23h6.03c.12,0,.23.1.23.23v6.03ZM26.56,52.75v6.03c0,.12-.1.23-.23.23h-6.03c-.12,0-.23-.1-.23-.23v-6.03c0-.12.1-.23.23-.23h6.03c.12,0,.23.1.23.23ZM20.3,61.16h6.03c.12,0,.23.1.23.23v6.03c0,.12-.1.23-.23.23h-6.03c-.12,0-.23-.1-.23-.23v-6.03c0-.12.1-.23.23-.23ZM26.57,77.87c0,.12-.1.23-.23.23h-6.03c-.12,0-.23-.1-.23-.23v-6.03c0-.12.1-.23.23-.23h6.03c.12,0,.23.1.23.23v6.03ZM34.94,50.13c0,.12-.1.23-.23.23h-6.03c-.12,0-.23-.1-.23-.23v-6.03c0-.12.1-.23.23-.23h6.03c.12,0,.23.1.23.23v6.03ZM34.95,52.75v6.03c0,.12-.1.23-.23.23h-6.03c-.12,0-.23-.1-.23-.23v-6.03c0-.12.1-.23.23-.23h6.03c.12,0,.23.1.23.23ZM28.68,61.16h6.03c.12,0,.23.1.23.23v6.03c0,.12-.1.23-.23.23h-6.03c-.12,0-.23-.1-.23-.23v-6.03c0-.12.1-.23.23-.23ZM34.96,77.87c0,.12-.1.23-.23.23h-6.03c-.12,0-.23-.1-.23-.23v-6.03c0-.12.1-.23.23-.23h6.03c.12,0,.23.1.23.23v6.03ZM35.16,34.95c0,1.14-.93,2.07-2.07,2.07h-16.47c-1.14,0-2.07-.93-2.07-2.07V6.98c0-1.14.93-2.07,2.07-2.07h16.47c1.14,0,2.07.93,2.07,2.07v27.97ZM36.76,61.39c0-.12.1-.23.23-.23h6.03c.12,0,.23.1.23.23v6.03c0,.12-.1.23-.23.23h-6.03c-.12,0-.23-.1-.23-.23v-6.03ZM43.25,77.87c0,.12-.1.23-.23.23h-6.03c-.12,0-.23-.1-.23-.23v-6.03c0-.12.1-.23.23-.23h6.03c.12,0,.23.1.23.23v6.03ZM45.14,61.39c0-.12.1-.23.23-.23h6.03c.12,0,.23.1.23.23v6.03c0,.12-.1.23-.23.23h-6.03c-.12,0-.23-.1-.23-.23v-6.03ZM51.64,77.87c0,.12-.1.23-.23.23h-6.03c-.12,0-.23-.1-.23-.23v-6.03c0-.12.1-.23.23-.23h6.03c.12,0,.23.1.23.23v6.03ZM53.42,10.53c0-.12.1-.23.23-.23h6.03c.12,0,.23.1.23.23v6.03c0,.12-.1.23-.23.23h-6.03c-.12,0-.23-.1-.23-.23v-6.03ZM53.43,25.2v-6.03c0-.12.1-.23.23-.23h6.03c.12,0,.23.1.23.23v6.03c0,.12-.1.23-.23.23h-6.03c-.12,0-.23-.1-.23-.23ZM53.55,61.39c0-.12.1-.23.23-.23h6.03c.12,0,.23.1.23.23v6.03c0,.12-.1.23-.23.23h-6.03c-.12,0-.23-.1-.23-.23v-6.03ZM60.05,77.87c0,.12-.1.23-.23.23h-6.03c-.12,0-.23-.1-.23-.23v-6.03c0-.12.1-.23.23-.23h6.03c.12,0,.23.1.23.23v6.03ZM61.94,61.39c0-.12.1-.23.23-.23h6.03c.12,0,.23.1.23.23v6.03c0,.12-.1.23-.23.23h-6.03c-.12,0-.23-.1-.23-.23v-6.03ZM68.44,77.87c0,.12-.1.23-.23.23h-6.03c-.12,0-.23-.1-.23-.23v-6.03c0-.12.1-.23.23-.23h6.03c.12,0,.23.1.23.23v6.03ZM70.22,61.39c0-.12.1-.23.23-.23h6.03c.12,0,.23.1.23.23v6.03c0,.12-.1.23-.23.23h-6.03c-.12,0-.23-.1-.23-.23v-6.03ZM76.72,77.87c0,.12-.1.23-.23.23h-6.03c-.12,0-.23-.1-.23-.23v-6.03c0-.12.1-.23.23-.23h6.03c.12,0,.23.1.23.23v6.03Z"/>
  </g>
</svg>